<?xml version="1.0" standalone="no"?>
<!DOCTYPE svg PUBLIC "-//W3C//DTD SVG 20010904//EN"
 "http://www.w3.org/TR/2001/REC-SVG-20010904/DTD/svg10.dtd">
<svg version="1.0" xmlns="http://www.w3.org/2000/svg"
 width="1200.000000pt" height="1200.000000pt" viewBox="0 0 1200.000000 1200.000000"
 preserveAspectRatio="xMidYMid meet">
<metadata>
Created by potrace 1.14, written by Peter Selinger 2001-2017
</metadata>
<g transform="translate(0.000000,1200.000000) scale(0.100000,-0.100000)"
fill="#000000" stroke="none">
<path d="M4798 11548 c-13 -43 -13 -43 38 -133 27 -49 64 -115 81 -145 16 -30
73 -131 125 -225 103 -183 137 -245 176 -315 13 -25 63 -115 111 -200 107
-193 106 -190 78 -184 -12 2 -38 7 -57 10 -19 2 -46 7 -60 9 -163 29 -585 26
-785 -5 -33 -5 -76 -11 -95 -14 -205 -26 -516 -123 -755 -235 -238 -111 -382
-200 -775 -477 -418 -294 -630 -386 -872 -379 -72 2 -108 7 -223 29 -93 18
-277 23 -370 11 -271 -35 -489 -137 -671 -312 -61 -59 -96 -99 -177 -205 -10
-12 -47 -81 -83 -153 -60 -122 -128 -318 -139 -405 -5 -41 -15 -104 -21 -134
-9 -43 -19 -265 -18 -381 2 -143 28 -243 104 -400 123 -255 322 -501 719 -889
493 -483 632 -626 737 -762 93 -121 150 -225 182 -329 17 -55 23 -200 11 -255
-4 -19 -10 -52 -13 -72 -17 -109 -100 -252 -243 -419 -223 -260 -274 -363
-277 -568 -2 -109 3 -147 43 -308 46 -184 240 -456 461 -647 125 -109 425
-319 510 -359 8 -4 38 -21 65 -37 28 -17 76 -44 107 -61 67 -36 65 -31 44
-177 -8 -53 -18 -117 -21 -142 -8 -61 -16 -110 -20 -140 -2 -14 -9 -63 -15
-110 -14 -106 -19 -139 -31 -215 -5 -33 -9 -63 -9 -67 0 -5 34 -8 75 -8 41 0
75 -4 75 -9 0 -16 -11 -19 -90 -25 -41 -4 -93 -9 -115 -11 -22 -2 -71 -7 -110
-10 -38 -3 -86 -8 -105 -10 -19 -3 -60 -7 -90 -10 -30 -3 -66 -7 -80 -10 -14
-2 -49 -7 -79 -10 -30 -4 -62 -8 -71 -10 -9 -2 -41 -6 -71 -10 -101 -12 -311
-56 -388 -81 -149 -48 -171 -99 -64 -146 64 -28 113 -45 156 -52 15 -3 35 -7
45 -10 9 -3 31 -8 47 -11 92 -16 206 -35 245 -40 25 -3 56 -8 70 -10 14 -2 50
-7 80 -10 30 -3 62 -8 70 -10 8 -2 53 -7 99 -10 47 -4 92 -8 100 -10 9 -1 54
-6 101 -10 47 -3 101 -8 120 -11 19 -2 69 -6 110 -9 41 -3 102 -7 135 -10 158
-13 347 -25 455 -30 41 -2 116 -6 165 -9 50 -3 146 -8 215 -11 69 -3 166 -7
215 -10 145 -8 430 -16 1010 -31 606 -16 2425 -9 2990 11 55 2 186 6 290 10
105 3 228 8 275 10 47 2 144 7 215 10 72 3 166 8 210 11 44 2 121 7 170 9 88
5 199 11 320 20 33 3 98 7 145 10 47 3 101 7 120 10 19 2 71 7 115 10 44 3 98
8 120 10 22 2 67 7 100 11 33 3 76 7 95 9 19 2 60 6 90 10 30 4 66 9 80 10
301 31 604 98 686 152 59 39 20 87 -103 126 -73 24 -198 53 -268 63 -16 2 -40
6 -52 8 -11 3 -43 8 -70 12 -26 3 -56 8 -67 10 -10 2 -44 6 -75 9 -31 3 -65 8
-76 10 -11 2 -51 7 -90 10 -38 4 -81 8 -95 11 -14 2 -56 6 -95 10 -38 3 -90 7
-115 9 -238 22 -231 21 -287 23 -49 2 -45 -7 -68 187 -4 28 -8 57 -10 65 -2 8
-7 40 -10 71 l-7 57 34 11 c77 25 249 141 389 261 125 106 382 372 495 510 16
19 31 37 34 40 3 3 19 23 35 45 17 22 33 42 36 45 17 15 162 219 246 348 53
81 104 159 114 174 11 15 19 29 19 32 0 2 23 44 51 93 151 260 341 714 399
953 6 25 12 52 15 60 10 38 54 261 60 310 4 30 9 64 11 75 9 49 18 240 17 353
-6 496 -163 804 -505 990 -87 47 -313 127 -417 147 -10 2 -81 21 -159 44 -304
87 -386 166 -386 371 0 188 50 316 229 585 142 214 184 289 238 435 56 150 80
296 81 485 1 155 0 162 -27 219 -50 107 -139 192 -272 259 -100 50 -324 115
-485 142 -19 3 -46 7 -60 10 -27 5 -73 11 -160 20 -30 4 -66 8 -80 10 -24 4
-102 9 -272 20 -141 9 -339 15 -693 20 -828 12 -986 28 -1088 115 -12 10 -78
64 -147 120 -69 56 -133 108 -143 116 -298 242 -684 481 -992 614 -11 5 -40
18 -65 28 -108 47 -409 141 -499 157 -19 3 -38 8 -42 10 -7 5 -85 143 -161
285 -22 41 -44 80 -48 85 -4 6 -23 39 -42 75 -31 57 -112 203 -203 365 -15 28
-44 79 -63 115 -19 36 -58 106 -86 155 -28 50 -63 111 -76 138 -14 26 -28 47
-32 47 -3 0 -12 -19 -20 -42z m-1260 -9369 l42 -24 -6 -165 c-8 -210 -9 -218
-15 -224 -2 -3 -54 -8 -114 -11 -105 -5 -148 -8 -313 -20 -49 -3 -71 -2 -67 5
4 6 12 10 18 9 7 -1 24 -1 38 0 29 1 25 -12 66 221 2 14 18 98 34 187 16 89
29 165 29 168 0 5 166 -79 288 -146z m5616 -287 c16 -64 31 -123 34 -131 4
-11 -17 -12 -119 -6 -178 10 -235 13 -408 20 -85 3 -159 8 -163 11 -10 6 -8
163 1 165 10 2 64 6 166 13 55 4 123 9 150 11 28 3 77 8 110 10 33 3 87 8 120
11 33 3 61 7 64 10 12 11 18 -5 45 -114z m-1076 21 c6 -10 7 -41 3 -106 -1
-10 -5 -16 -10 -13 -8 5 -432 18 -668 20 -98 1 -112 9 -36 21 27 5 53 9 58 11
26 6 196 33 240 39 28 3 66 7 85 10 98 12 131 15 205 20 44 4 81 8 83 10 7 6
34 -2 40 -12z m-3773 -113 c13 -6 -13 -9 -75 -10 -52 -1 -103 -3 -113 -5 -15
-3 -18 3 -16 44 l2 48 91 -35 c50 -18 100 -38 111 -42z"/>
</g>
</svg>
